<svg width="14" height="14" viewBox="0 0 14 14" fill="none" xmlns="http://www.w3.org/2000/svg">
<rect width="14" height="14" rx="2" fill="#00A859"/>
<path fill-rule="evenodd" clip-rule="evenodd" d="M10.4343 3.2602C10.6058 3.09412 10.8372 3.00065 11.0787 3C11.3201 2.99935 11.552 3.09157 11.7244 3.25672C11.8968 3.42187 11.9958 3.64667 11.9999 3.88254C12.004 4.11841 11.9129 4.34638 11.7464 4.51718L6.85587 10.4908C6.77182 10.5793 6.67038 10.6503 6.55761 10.6996C6.44483 10.7488 6.32305 10.7754 6.19954 10.7776C6.07602 10.7799 5.95332 10.7577 5.83876 10.7126C5.72419 10.6674 5.62013 10.6001 5.53278 10.5148L2.29244 7.34717C2.20217 7.26498 2.12976 7.16586 2.07954 7.05572C2.02932 6.94559 2.00232 6.8267 2.00014 6.70614C1.99797 6.58559 2.02066 6.46584 2.06687 6.35404C2.11308 6.24225 2.18187 6.14069 2.26911 6.05543C2.35636 5.97018 2.46029 5.90296 2.5747 5.85781C2.68911 5.81265 2.81165 5.79047 2.93502 5.7926C3.05839 5.79473 3.18006 5.82111 3.29277 5.87019C3.40547 5.91926 3.50691 5.99001 3.59103 6.07822L6.15635 8.5838L10.4111 3.28653C10.4187 3.27726 10.4268 3.26846 10.4356 3.2602H10.4343Z" fill="white"/>
</svg>
